<svg width="47" height="47" viewBox="0 0 47 47" fill="none" xmlns="http://www.w3.org/2000/svg">
<path fill-rule="evenodd" clip-rule="evenodd" d="M23.5 47C36.4787 47 47 36.4787 47 23.5C47 10.5213 36.4787 0 23.5 0C10.5213 0 0 10.5213 0 23.5C0 36.4787 10.5213 47 23.5 47ZM15.7437 14.9796C16.266 14.4586 16.5597 13.7518 16.5601 13.0147C16.5605 12.2775 16.2675 11.5704 15.7456 11.0489C15.2238 10.5274 14.5158 10.2342 13.7774 10.2339C13.039 10.2335 12.3307 10.526 11.8084 11.047C11.286 11.5679 10.9923 12.2748 10.9919 13.0119C10.9916 13.749 11.2845 14.4561 11.8064 14.9776C12.3282 15.4992 13.0362 15.7923 13.7746 15.7927C14.513 15.7931 15.2213 15.5006 15.7437 14.9796ZM11.0755 17.8509H16.6436V35.25H11.0755V17.8509ZM19.901 17.8509H25.4413L25.3856 20.1856C27.6964 15.9748 37.5242 15.6551 37.5242 24.2296V35.25H32.0256V26.1196C32.0256 20.5608 25.3856 21.0333 25.3856 26.1196V35.25H19.901V17.8509Z" fill="#404040"/>
</svg>
