<svg xmlns="http://www.w3.org/2000/svg" width="17.995" height="11.337" viewBox="1 124 17.995 11.337"><path d="M17.152 131.739h-4.231a2.973 2.973 0 0 0 .534 1.298 1.985 1.985 0 0 0 1.581.86 1.95 1.95 0 0 0 1.519-.79 2.79 2.79 0 0 0 .384-.649h1.86a4.14 4.14 0 0 1-3.943 2.879 4.139 4.139 0 0 1-4.138-4.137 4.137 4.137 0 0 1 4.138-4.137 4.137 4.137 0 0 1 4.14 4.137 4.147 4.147 0 0 1-.04.539h-1.804Zm-10.034 3.51L1 135.337v-11.151s8.702-1.204 8.638 2.518c0 0 .271 1.892-1.08 2.518 0 0 1.796.284 1.8 2.877 0 0 .123 2.412-2.969 3.096a6.616 6.616 0 0 1-.27.054Zm-.72-4.948H3.52v2.878H6.4a1.882 1.882 0 0 0 .354-.034c1.07-.21 1.085-1.341 1.085-1.403a.306.306 0 0 0 0-.002 1.717 1.717 0 0 0-.046-.36c-.236-.974-1.291-1.072-1.386-1.079a.374.374 0 0 0-.007 0Zm6.129-5.745h4.656v1.437h-4.656v-1.437Zm-6.488 1.428h-2.52v2.517h2.52a2.575 2.575 0 0 0 .317-.02c1.146-.145 1.122-1.056 1.122-1.059a2.036 2.036 0 0 0-.035-.351c-.222-1.144-1.404-1.087-1.404-1.087Zm8.997 2.517a1.965 1.965 0 0 0-1.56.844 2.911 2.911 0 0 0-.467.956h4.055a2.83 2.83 0 0 0-.622-1.142 1.907 1.907 0 0 0-1.406-.658Z" fill="#646464" fill-rule="evenodd" data-name="behance"/></svg>