<svg width="245" height="79" viewBox="0 0 245 79" fill="none" xmlns="http://www.w3.org/2000/svg">
<path fill-rule="evenodd" clip-rule="evenodd" d="M85 77H245V63H85V77Z" fill="white"/>
<path fill-rule="evenodd" clip-rule="evenodd" d="M48.6705 79L59.6206 29.3209V79H80V0H50.6465L40 39.6524L29.3535 0H0V79H20.3809V29.3209L31.331 79H48.6705Z" fill="white"/>
<path fill-rule="evenodd" clip-rule="evenodd" d="M84 58H100V23H84V58Z" fill="white"/>
<path fill-rule="evenodd" clip-rule="evenodd" d="M133 36.1498C124.995 34.591 120.232 37.0112 119.971 44.9635V58H104V23.0187H118.5V30.1199C121.2 24.1476 125.768 21.1023 133 22.2327V36.1498Z" fill="white"/>
<path fill-rule="evenodd" clip-rule="evenodd" d="M165 36.1498C156.995 34.591 152.232 37.0112 151.971 44.9635V58H136V23.0187H150.5V30.1199C153.2 24.1476 157.768 21.1023 165 22.2327V36.1498Z" fill="white"/>
<path fill-rule="evenodd" clip-rule="evenodd" d="M245 36.1498C236.995 34.591 232.232 37.0112 231.971 44.9635V58H216V23.0187H230.5V30.1199C233.2 24.1476 237.768 21.1023 245 22.2327V36.1498Z" fill="white"/>
<path fill-rule="evenodd" clip-rule="evenodd" d="M212 40.5C212 28.6374 202.786 22 189.5 22C176.214 22 167 28.6374 167 40.5C167 52.3626 176.214 59 189.5 59C202.786 59 212 52.3626 212 40.5ZM196.3 40.5C196.238 34.418 193.751 31.3172 189.5 31.2906C185.249 31.3172 182.762 34.418 182.7 40.5C182.762 46.582 185.249 49.6828 189.5 49.7094C193.751 49.6828 196.238 46.582 196.3 40.5Z" fill="white"/>
<path fill-rule="evenodd" clip-rule="evenodd" d="M85 17H93.0153C97.4253 17 101 13.1939 101 8.5C101 3.80451 97.4253 4.86878e-07 93.0153 4.86878e-07H85V17ZM94.737 8.46896C94.7574 6.07542 93.3419 4.88641 91.1041 5.09596V11.8419C93.3419 12.0499 94.7574 10.8609 94.737 8.46896Z" fill="white"/>
<path fill-rule="evenodd" clip-rule="evenodd" d="M112.791 14.7648L113.328 17H120L114.063 4.86878e-07H106.938L101 17H107.672L108.209 14.7648H112.791ZM111.857 11.0767L110.5 5.41572L109.143 11.0767H111.857Z" fill="white"/>
<path fill-rule="evenodd" clip-rule="evenodd" d="M122 17H129V4.86878e-07H122V17Z" fill="white"/>
<path fill-rule="evenodd" clip-rule="evenodd" d="M131 4.86878e-07H137.55V11.8776H143V17H131V4.86878e-07Z" fill="white"/>
<path fill-rule="evenodd" clip-rule="evenodd" d="M153.584 17V9.61916L160 4.86878e-07H152.648L150.501 4.21585L148.352 4.86878e-07H141L147.416 9.61916V17H153.584Z" fill="white"/>
</svg>
