<svg xmlns="http://www.w3.org/2000/svg" width="17.995" height="17.985" viewBox="1 0 17.995 17.985"><path d="M15.756 17.985H4.24A3.239 3.239 0 0 1 1 14.748V3.237A3.238 3.238 0 0 1 4.24 0h11.516c1.79 0 3.24 1.45 3.24 3.237v11.51a3.239 3.239 0 0 1-3.24 3.238ZM5.32 16.187h9.357a2.519 2.519 0 0 0 2.52-2.518V7.194h-2.494A5.04 5.04 0 0 1 15.04 9a5.039 5.039 0 0 1-5.047 5.03c-2.787 0-5.047-2.252-5.047-5.03a5.04 5.04 0 0 1 .338-1.806H2.8v6.475a2.519 2.519 0 0 0 2.519 2.518Zm4.69-10.062a2.875 2.875 0 1 1 0 5.75A2.875 2.875 0 0 1 7.132 9a2.875 2.875 0 0 1 2.875-2.875Zm3.937-3.969h2.875v2.875h-2.875V2.156Z" fill="#646464" fill-rule="evenodd" data-name="instagram"/></svg>