<svg xmlns="http://www.w3.org/2000/svg" width="18.019" height="14.753" viewBox="2.02 64.439 18.019 14.753"><path d="m18.228 66.957 1.812-.36s-1.518 1.706-1.812 1.799c-.003.001-.006-.003-.01-.002-.038.832.01 1.08.01 1.08-3.463 14.83-16.208 8.274-16.208 8.274 4.637.122 5.05-1.798 5.05-1.798-2.715-.41-3.239-2.159-3.239-2.159.924.42 1.44-.36 1.44-.36-2.93-.756-2.52-3.597-2.52-3.597.49.448 1.29.618 1.767.682-.331-.384-3.067-3.662-1.406-5.358 0 0 1.997 3.59 7.288 3.935l.353-.09a3.772 3.772 0 0 1 3.696-4.564c2.516 0 3.059 1.438 3.059 1.438l1.8-1.079s-.198 1.804-1.08 2.159Z" fill="#646464" fill-rule="evenodd" data-name="twitter"/></svg>